<svg width="399" height="155" viewBox="0 0 399 155" fill="none" xmlns="http://www.w3.org/2000/svg">
<path d="M0 0H321.5C364.302 0 399 34.6979 399 77.5V155H0V0Z" fill="#FDF7F2"/>
<path fill-rule="evenodd" clip-rule="evenodd" d="M153.098 102.809C153.298 103.014 153.672 103.138 154.083 103.138C154.449 103.138 154.789 103.032 154.978 102.864C155.052 102.791 155.119 102.715 155.156 102.623C155.03 102.616 154.915 102.587 154.834 102.514L154.69 102.401L154.741 102.255C154.882 101.774 154.83 101.38 154.604 101.15C154.416 100.965 154.09 100.884 153.672 100.921C153.376 100.954 153.124 101.099 152.854 101.256C152.628 101.387 152.399 101.522 152.14 101.584L151.681 101.701V98.5654C151.681 98.2299 151.699 97.8836 151.714 97.5481C151.747 96.9137 151.769 96.3121 151.688 95.8563C151.618 95.4771 151.277 95.2839 150.678 95.2839C150.256 95.2839 149.763 95.3896 149.441 95.5464L149.39 95.6813H148.098L148.879 95.1855C149.031 94.9886 149.334 94.8427 149.649 94.6969C149.926 94.5656 150.267 94.4052 150.322 94.2666C150.359 94.1791 150.393 94.0661 150.337 94.0041C150.3 93.9604 150.13 93.8328 149.434 93.8328C149.364 93.8328 149.297 93.8328 149.219 93.8401L148.916 93.8473L148.86 93.6176C148.779 93.2822 148.779 92.9212 148.779 92.5749C148.79 91.7727 148.742 91.3826 148.261 91.2841C148.135 91.2586 148.017 91.2477 147.883 91.2477C147.48 91.2477 147.076 91.3644 146.655 91.4956C146.458 91.5576 146.259 91.6196 146.055 91.6633V91.7326C146.307 91.7581 146.473 91.8493 146.566 91.9259C146.899 92.2066 146.869 92.6806 146.84 93.1509C146.832 93.3551 146.814 93.5812 146.84 93.7416C146.888 94.0661 147.039 94.1755 147.469 94.1755C147.665 94.1755 147.917 94.15 148.239 94.088L149.057 93.9494L148.609 94.5109C148.376 94.7953 148.098 95.1417 147.82 95.4808L147.58 95.7652L147.276 95.5173C147.125 95.3933 146.951 95.3422 146.71 95.3422C146.318 95.3422 145.851 95.4917 145.396 95.6522C145.17 95.7287 144.963 95.8017 144.752 95.8527V95.9402C144.978 95.9657 145.167 96.0277 145.307 96.1444C145.615 96.4069 145.585 96.8153 145.555 97.2564C145.548 97.3913 145.537 97.5299 145.537 97.6648V98.9555C145.537 99.2436 145.522 99.528 145.518 99.8014C145.481 100.782 145.448 101.712 145.929 102.106C146.129 102.27 146.421 102.35 146.825 102.35H146.854C147.595 102.335 148.02 102.026 148.431 101.592C148.398 101.581 148.361 101.573 148.339 101.566C148.25 101.628 148.116 101.705 147.909 101.705C147.857 101.705 147.794 101.697 147.739 101.686L147.469 101.632L147.484 101.409C147.521 100.935 147.498 100.37 147.476 99.7686C147.443 99.1014 147.428 98.4159 147.484 97.8544C147.509 97.5299 147.572 97.3148 147.665 97.1653C147.887 96.8226 148.442 96.5382 148.905 96.5382C149.367 96.5382 149.664 96.7752 149.738 97.1653C149.819 97.5809 149.793 98.0659 149.763 98.5763C149.756 98.8316 149.738 99.0868 149.738 99.342C149.738 99.5972 149.73 99.8452 149.719 100.093C149.701 100.578 149.675 101.074 149.738 101.479C149.793 101.865 150.052 102.018 150.382 102.219C150.456 102.263 150.537 102.306 150.622 102.361C150.685 102.368 150.755 102.368 150.822 102.368C151.584 102.368 152.088 102.08 152.461 101.872L153.265 101.424L153.006 102.168C152.909 102.43 152.95 102.653 153.105 102.82L153.098 102.809Z" fill="black"/>
<path fill-rule="evenodd" clip-rule="evenodd" d="M161 97.3564C161.633 97.3823 162.192 97.2082 162.587 97.0156V96.997C162.471 96.9896 162.371 96.9785 162.27 96.9415L162.181 96.9155L162.125 96.8563C161.954 96.6636 161.846 96.4636 161.749 96.2895C161.648 96.0857 161.555 95.9042 161.358 95.7709C161.16 95.6375 160.896 95.5745 160.572 95.5745C159.991 95.5745 159.309 95.7894 158.899 95.9968L158.475 96.2228L158.367 95.8264C158.266 95.4671 158.314 95.0114 158.359 94.5336C158.419 93.989 158.486 93.2592 158.214 93.1073C158.139 93.0777 158.024 93.0703 157.845 93.0555C157.696 93.0555 157.514 93.0444 157.312 93.0036L157.052 92.9517L157.044 92.7369C157.037 92.5776 157.044 92.422 157.044 92.2738C157.055 91.8886 157.063 91.4959 156.865 91.3662C156.739 91.281 156.597 91.2477 156.407 91.2477C156.009 91.2477 155.495 91.4292 155.044 91.5959C154.783 91.6922 154.537 91.7774 154.303 91.8441V91.9775C154.537 91.9812 154.772 92.0071 154.943 92.1405L155.014 92.196L155.04 92.2701C155.122 92.5146 155.104 92.7739 155.092 93.0036C155.081 93.2185 155.066 93.4593 155.159 93.5333C155.204 93.5667 155.331 93.5667 155.483 93.5667H155.547C155.737 93.5667 155.934 93.5704 156.143 93.6223L156.396 93.6852V96.3784L155.822 96.0153C155.454 95.782 154.746 95.5301 154.143 95.5301C153.833 95.5301 153.58 95.593 153.412 95.7301C153.252 95.8449 153.178 96.0153 153.088 96.1969C152.98 96.434 152.854 96.7155 152.522 96.9304L152.422 97.0044L152.276 96.997C152.247 96.9896 152.217 96.9896 152.194 96.997C152.194 97.0044 152.194 97.0156 152.183 97.0267C152.667 97.2341 153.167 97.3564 153.573 97.3564C153.845 97.3564 154.087 97.3082 154.277 97.2082C154.347 97.1563 154.493 96.9933 154.608 96.8711C154.873 96.5562 155.159 96.2265 155.558 96.2265C156.016 96.2265 156.318 96.6266 156.385 96.8266C156.459 97.0415 156.433 97.3193 156.422 97.6231C156.407 97.7713 156.396 97.9157 156.396 98.0528V99.2197C156.396 99.4642 156.396 99.7124 156.385 99.9421C156.359 100.883 156.325 101.761 156.798 102.146C156.996 102.306 157.286 102.387 157.7 102.394H157.707C158.508 102.394 158.896 102.117 159.32 101.631C159.182 101.624 159.048 101.639 158.799 101.687L158.355 101.78V97.7231C158.337 97.0785 158.318 96.4228 159.179 96.2339L159.331 96.2043L159.469 96.2784C159.749 96.434 159.931 96.6525 160.091 96.834C160.378 97.1526 160.553 97.3379 161.004 97.3564H161Z" fill="black"/>
<path fill-rule="evenodd" clip-rule="evenodd" d="M170.443 95.0319C170.481 95.6048 171.175 95.8547 171.851 95.8547C172.27 95.8547 172.681 95.7547 172.991 95.5855V95.5509C172.636 95.501 172.561 95.3049 172.542 95.2241C172.485 94.9627 172.515 94.7128 172.542 94.4898C172.579 94.2553 172.606 94.0323 172.523 93.8862C172.432 93.7093 172.247 93.5017 171.655 93.5017C171.062 93.5017 170.375 93.6901 169.854 93.8362L169.28 94.0015L169.39 93.5094C169.507 93.025 169.427 92.6444 169.171 92.3906C168.899 92.1292 168.423 91.9908 167.819 91.9908C167.113 91.9908 166.328 92.1869 165.864 92.4944L165.505 92.729L165.32 92.3829C165.184 92.1407 164.965 92.0292 164.607 92.0292C164.041 92.0292 163.301 92.3099 162.761 92.5137C162.701 92.5406 162.644 92.5598 162.587 92.579V92.7251C162.806 92.7251 163.025 92.7636 163.191 92.8866L163.282 92.9596L163.308 93.0596C163.425 93.7055 163.399 94.4398 163.388 95.1549C163.372 95.7701 163.354 96.3545 163.425 96.8735C163.459 97.1542 163.678 97.4041 163.916 97.6578C164.154 97.927 164.403 98.1999 164.441 98.5421C164.516 99.0534 164.479 99.6032 164.452 100.126C164.426 100.599 164.395 101.041 164.441 101.41C164.512 101.929 165.007 102.348 165.6 102.394H165.8C166.577 102.394 167.015 102.052 167.427 101.595C167.272 101.576 167.136 101.587 166.962 101.649L166.487 101.81L166.468 101.399C166.449 101.03 166.464 100.637 166.468 100.257C166.494 99.3033 166.521 98.3268 166.049 97.8616L165.837 97.6386L166.102 97.4541C166.136 97.431 166.166 97.4041 166.211 97.3772C166.475 97.1811 166.887 96.8735 167.472 96.9235C167.721 96.9427 167.914 97.035 168.095 97.1003C168.242 97.1657 168.37 97.2157 168.491 97.2311C169.246 97.2964 169.858 97.0542 170.39 96.466C170.352 96.4506 170.315 96.4391 170.281 96.4198C170.198 96.4775 170.062 96.5506 169.858 96.5506C169.812 96.5506 169.767 96.5506 169.714 96.539L169.446 96.5006L169.412 96.1276C169.378 95.5894 169.318 94.8551 169.477 94.3899L169.522 94.2514L169.677 94.1899C169.933 94.0977 170.179 94.1361 170.318 94.2707C170.511 94.4398 170.477 94.7013 170.447 94.905V95.0319H170.443ZM167.408 96.0661V96.2699L167.178 96.3391C166.868 96.4314 166.585 96.6274 166.328 96.812C166.2 96.8927 166.079 96.9812 165.97 97.0465L165.29 97.4348L165.407 96.7659C165.46 96.4698 165.418 96.0046 165.373 95.5163C165.29 94.509 165.2 93.4594 165.766 92.9635C165.97 92.7828 166.253 92.6867 166.57 92.6867C166.736 92.6867 166.925 92.7136 167.117 92.7674L167.347 92.8328L167.366 93.0212C167.423 93.6248 167.412 94.2784 167.412 94.9127C167.4 95.2895 167.4 95.6855 167.412 96.0661H167.408Z" fill="black"/>
<path fill-rule="evenodd" clip-rule="evenodd" d="M219.8 97.3878C219.749 97.3664 219.706 97.3521 219.659 97.3379C219.586 97.3878 219.453 97.4519 219.276 97.4519C219.204 97.4519 219.128 97.4412 219.052 97.4234L218.843 97.3628L218.832 97.1847C218.774 96.5504 218.806 95.8733 218.839 95.2177C218.868 94.5085 218.904 93.8386 218.832 93.2685C218.796 93.0261 218.669 92.7339 217.983 92.7339C217.257 92.7339 216.347 93.0511 215.965 93.2863L215.611 93.5036L215.445 93.1687C215.354 92.987 215.156 92.7446 214.488 92.7446C213.744 92.7446 212.758 93.0475 212.075 93.3397L211.725 93.4858L211.595 93.1901C211.465 92.8979 211.223 92.7731 210.79 92.7731C210.288 92.7731 209.573 92.9656 208.775 93.3112L208.421 93.4609L208.298 93.158C208.222 92.987 208.064 92.7553 207.504 92.7553C206.883 92.7553 206.128 93.0297 205.688 93.24V93.354C205.886 93.3718 206.056 93.4466 206.186 93.5464C206.561 93.86 206.518 94.4515 206.475 95.0145C206.467 95.1678 206.449 95.3139 206.449 95.4386C206.449 95.6702 206.442 95.8947 206.435 96.1121C206.424 96.5112 206.406 96.8889 206.449 97.2132C206.536 97.7904 206.998 98.0826 207.847 98.0826C208.027 98.0826 208.215 98.0648 208.414 98.0399L209.053 97.9508L208.789 98.4105C208.544 98.831 208.15 99.2479 207.767 99.6612C207.349 100.117 206.908 100.584 206.684 101.033C206.518 101.379 206.536 101.689 206.756 101.953C206.98 102.213 207.37 102.384 207.829 102.394C208.569 102.402 208.999 102.02 209.378 101.6C209.306 101.582 209.234 101.568 209.183 101.568H209.158L208.36 101.767L208.753 101.186C209.122 100.634 209.573 100.11 210.046 99.5543C210.144 99.4439 210.23 99.3227 210.328 99.2194C210.45 99.0662 210.588 98.9236 210.721 98.7882C211.165 98.3143 211.62 97.8225 211.693 97.2524C211.754 96.7179 211.729 96.1798 211.704 95.6203C211.682 95.0359 211.66 94.4444 211.729 93.8172L211.743 93.6533L211.935 93.5927C212.032 93.5607 212.357 93.4645 212.715 93.4645C213.17 93.4645 213.379 93.6284 213.484 93.7638L213.527 93.8137V93.8671C213.607 94.4088 213.589 95.0644 213.563 95.7023C213.545 96.2475 213.527 96.7642 213.57 97.1775C213.657 98.0149 214.672 98.0755 214.986 98.0755C215.643 98.0755 216.261 97.851 216.535 97.5054L216.972 96.953L217.156 97.598C217.257 97.9579 217.799 98.0791 218.276 98.0791C218.572 98.0791 218.879 98.0292 219.124 97.9472C219.168 97.9116 219.211 97.8795 219.254 97.851C219.456 97.7014 219.655 97.5481 219.807 97.3913L219.8 97.3878ZM209.775 96.8034C209.645 97.1668 209.086 97.4092 208.742 97.4341L208.392 97.4519L208.374 97.1811C208.313 96.1228 208.313 94.8613 208.374 93.8065L208.385 93.6604L208.54 93.5892C208.732 93.4965 208.898 93.4573 209.053 93.4573C209.226 93.4573 209.378 93.5108 209.497 93.6034C209.819 93.8529 209.804 94.3553 209.793 94.8756C209.793 94.954 209.786 95.0359 209.786 95.1072C209.786 95.2782 209.804 95.4813 209.819 95.6773C209.844 96.1228 209.869 96.5397 209.782 96.8069L209.775 96.8034ZM216.954 96.7927C216.813 97.1811 216.174 97.3628 215.939 97.3985L215.546 97.4733L215.52 97.149C215.466 96.1014 215.466 94.8506 215.52 93.8065L215.531 93.6604L215.69 93.5892C215.885 93.4965 216.058 93.4573 216.217 93.4573C216.391 93.4573 216.55 93.5108 216.672 93.6141C216.979 93.8564 216.976 94.3482 216.968 94.8649V95.0822C216.968 95.239 216.979 95.4315 216.994 95.6274C217.023 96.0871 217.048 96.5254 216.95 96.7927H216.954Z" fill="black"/>
<path fill-rule="evenodd" clip-rule="evenodd" d="M180.17 98.9574C180.17 99.2579 180.167 99.5662 180.159 99.8552C180.152 100.406 180.144 100.93 180.17 101.323C180.23 102.105 180.908 102.387 181.523 102.387C182 102.387 182.488 102.213 182.823 101.94L183.181 101.643L183.397 102.017C183.524 102.24 183.99 102.394 184.523 102.394C184.955 102.394 185.342 102.29 185.532 102.125V102.078C185.26 102.032 185.19 101.87 185.163 101.789L185.156 101.736L185.163 101.685C185.201 101.508 185.253 101.331 185.305 101.161C185.398 100.818 185.495 100.499 185.432 100.167C185.305 99.5585 184.504 99.335 183.792 99.335C183.394 99.335 182.972 99.4005 182.611 99.5315L182.13 99.6895V96.4836L182.212 96.4066C182.242 96.3796 182.268 96.3372 182.302 96.3102C182.436 96.16 182.615 95.9557 182.987 95.9056L183.129 95.8864L183.248 95.9519C183.528 96.1137 183.643 96.3102 183.729 96.4682C183.792 96.5607 183.829 96.6416 183.908 96.711C184.224 97.0192 184.754 97.0732 185.037 97.0732C185.506 97.0732 186.002 96.9537 186.367 96.7649C186.36 96.7456 186.356 96.7341 186.356 96.7187C185.745 96.6339 185.562 96.1985 185.424 95.8787C185.342 95.6822 185.264 95.4972 185.115 95.3739C184.932 95.2236 184.701 95.1427 184.414 95.1427C183.818 95.1427 183.121 95.4587 182.663 95.6667L182.194 95.8787L182.13 95.451C182.074 95.0233 182.104 94.5262 182.13 94.0445C182.182 93.2893 182.231 92.4339 181.877 92.1256C181.806 92.0679 181.687 91.9908 181.415 91.9908C180.945 91.9908 180.565 92.1526 180.167 92.3183C179.921 92.4223 179.671 92.5302 179.392 92.5996V92.6767C179.623 92.6882 179.95 92.7653 180.111 93.0234L180.137 93.0697L180.144 93.1159C180.196 93.5667 180.196 94.0715 180.181 94.5609C180.178 94.8576 180.17 95.1504 180.181 95.4317L180.196 95.9519L179.563 95.6513C179.052 95.4163 178.479 95.1389 177.849 95.1389C177.797 95.1389 177.748 95.1389 177.696 95.1466C177.256 95.1812 177.122 95.397 176.91 95.8247C176.765 96.0945 176.597 96.4027 176.273 96.6262L176.235 96.657L176.179 96.6763C176.116 96.6878 176.045 96.7071 175.971 96.7148C175.971 96.7302 175.971 96.7418 175.963 96.7534C176.343 96.9306 176.757 97.0809 177.238 97.0809C177.316 97.0809 177.391 97.0809 177.465 97.0655C177.923 97.0269 178.18 96.7649 178.486 96.4605C178.684 96.2794 178.888 96.079 179.153 95.9365L179.369 95.8209L179.567 95.9519C179.604 95.9866 179.649 96.0097 179.693 96.0289C179.872 96.133 180.092 96.2678 180.17 96.5067C180.286 96.8574 180.252 97.3968 180.219 98.0134C180.2 98.3139 180.178 98.6376 180.178 98.9381L180.17 98.9574ZM182.209 100.156C182.425 99.9477 182.697 99.8667 183.047 99.9053L183.14 99.9168L183.215 99.9554C183.677 100.244 183.598 101.084 183.379 101.416L183.33 101.501L183.215 101.547C183.077 101.585 182.924 101.597 182.782 101.597H182.484L182.391 101.52C182.1 101.3 182.112 100.942 182.123 100.626C182.123 100.526 182.13 100.441 182.123 100.356L182.115 100.244L182.205 100.152L182.209 100.156Z" fill="black"/>
<path fill-rule="evenodd" clip-rule="evenodd" d="M196.661 102.172C196.716 102.126 196.752 102.076 196.771 102.007C196.609 101.961 196.521 101.85 196.495 101.739L196.488 101.712V101.681C196.499 101.474 196.525 101.264 196.547 101.08C196.62 100.489 196.672 100.029 196.349 99.6881C196.085 99.4044 195.56 99.2434 194.955 99.2434C194.566 99.2434 194.188 99.3009 193.851 99.4351L193.388 99.6038L193.363 99.1783C193.337 98.5189 193.348 97.8673 193.37 97.2309C193.388 96.5448 193.407 95.8931 193.363 95.2759C193.311 94.5399 192.761 94.0109 192.225 93.4896C191.888 93.1676 191.547 92.8341 191.33 92.4584L191.162 92.1594L191.51 92.0674C191.51 92.0406 191.521 92.0138 191.521 91.9908C191.385 92.0023 191.257 92.0023 191.121 92.0099C190.362 92.0291 189.507 92.0559 189.184 92.3051C188.946 92.4814 189.034 92.6923 189.602 93.2711C189.841 93.5126 190.039 93.7234 190.098 93.9304L190.186 94.2218L189.823 94.2754C189.547 94.3214 189.324 94.4173 189.085 94.5246L188.836 94.6281L188.66 94.4709C188.421 94.2639 188.098 94.2179 187.853 94.2179C187.277 94.2179 186.635 94.4709 186.367 94.7853C186.4 94.8198 186.422 94.8504 186.462 94.8773C186.532 94.8504 186.624 94.8236 186.726 94.8236C186.829 94.8236 186.925 94.8504 187.005 94.8964L187.159 94.9808V98.2774C187.159 98.6493 187.141 99.0288 187.13 99.4006C187.112 100.125 187.079 100.819 187.159 101.421C187.24 102.08 187.886 102.322 188.396 102.337H188.432C189.188 102.337 189.632 101.996 190.024 101.54C189.995 101.532 189.962 101.52 189.929 101.513C189.841 101.578 189.716 101.658 189.529 101.658C189.481 101.658 189.43 101.651 189.379 101.647L189.129 101.597L189.111 101.371C189.067 100.198 189.067 98.956 189.078 97.7408C189.078 97.0086 189.093 96.2534 189.078 95.5059V95.4408L189.111 95.3833C189.393 94.8926 189.804 94.6051 190.373 94.4901L190.556 94.4518L190.692 94.5629C191.572 95.2414 191.528 96.5524 191.484 97.9593C191.473 98.2583 191.466 98.5649 191.466 98.8678C191.466 99.2204 191.448 99.5731 191.433 99.9104C191.404 100.539 191.378 101.126 191.459 101.532C191.576 102.122 192.277 102.329 192.897 102.329C193.44 102.329 193.964 102.172 194.265 101.923L194.614 101.635L194.826 102.015C194.94 102.226 195.428 102.394 195.909 102.394C196.239 102.394 196.514 102.318 196.653 102.18L196.661 102.172ZM194.797 100.834C194.683 101.252 194.36 101.524 193.979 101.524C193.873 101.524 193.773 101.505 193.671 101.474L193.572 101.421L193.517 101.344C193.33 101.068 193.223 100.428 193.473 100.068C193.66 99.7916 194.034 99.7073 194.408 99.8644C194.815 100.029 194.896 100.47 194.797 100.83V100.834Z" fill="black"/>
<path fill-rule="evenodd" clip-rule="evenodd" d="M202.631 97.6515C202.631 97.8559 202.616 98.0679 202.616 98.2646C202.604 98.6464 202.588 99.0011 202.623 99.2633C202.713 99.9266 203.405 100.22 204.043 100.22C204.355 100.22 204.668 100.154 204.95 100.023C205.254 99.8919 205.469 99.6836 205.688 99.4368C205.653 99.4291 205.614 99.4176 205.575 99.406C205.497 99.4446 205.364 99.5101 205.176 99.5101C205.102 99.5101 205.039 99.4985 204.965 99.4831L204.707 99.4291L204.688 99.2248C204.606 98.6155 204.652 97.9561 204.699 97.3122C204.738 96.6335 204.778 95.9972 204.688 95.4844C204.68 95.4651 204.652 95.3841 204.621 95.3263C204.406 94.8558 203.902 94.636 202.983 94.636C202.291 94.636 201.478 94.7671 200.766 94.8867C200.544 94.9175 200.332 94.96 200.133 94.9869L199.719 95.0525L199.691 94.717C199.68 94.4471 199.691 94.154 199.691 93.8725C199.719 93.1823 199.73 92.3995 199.386 92.1103C199.32 92.0563 199.207 91.9908 198.96 91.9908H198.945C198.479 91.9908 198.042 92.1604 197.572 92.3301C197.31 92.4304 197.052 92.5268 196.771 92.6078V92.6617C197.009 92.6733 197.213 92.7466 197.357 92.87C197.717 93.1746 197.678 93.6566 197.639 94.1656C197.612 94.5551 197.572 95.0255 197.78 95.1566C197.866 95.2183 198.022 95.2222 198.311 95.2299C198.433 95.2376 198.573 95.2376 198.718 95.2492L199.382 95.2877L198.984 95.708C198.878 95.8199 198.745 95.9124 198.605 96.0049C198.456 96.1052 198.311 96.2016 198.206 96.3289C197.815 96.7762 197.838 97.7864 197.866 98.6695C197.873 98.897 197.881 99.1284 197.881 99.352C197.881 99.6142 197.866 99.8764 197.854 100.131C197.827 100.821 197.795 101.531 198.002 101.858C198.284 102.306 198.777 102.394 199.148 102.394C199.856 102.394 200.653 102.055 201.005 101.635C200.958 101.616 200.903 101.596 200.86 101.581C200.774 101.635 200.641 101.7 200.442 101.7C200.375 101.7 200.309 101.689 200.243 101.673L199.942 101.608L199.973 101.365C200.059 100.709 200.008 99.9266 199.953 99.1129C199.895 98.1991 199.84 97.2466 199.973 96.433C200.039 96.0281 200.559 95.6039 200.978 95.5075C201.13 95.4767 201.279 95.4612 201.439 95.4612C201.971 95.4612 202.412 95.6386 202.565 95.9201C202.729 96.2247 202.69 96.6682 202.659 97.1579C202.651 97.3276 202.639 97.505 202.639 97.6476L202.631 97.6515Z" fill="black"/>
<path d="M152.205 64.4954C157.565 64.4954 159.614 67.7746 159.614 74.3404C159.614 75.3196 159.614 76.4278 159.482 77.6234H149.499C149.631 80.523 150.765 82.1853 153.159 82.1853C155.554 82.1853 156.777 81.4604 157.608 81.4604C158.652 81.4604 159.09 82.3978 159.048 85.2974C157.608 86.1058 155.298 86.789 151.941 86.789C145.532 86.789 143.266 81.9728 143.266 75.5815C143.266 69.1902 146.056 64.4992 152.201 64.4992L152.205 64.4954ZM151.987 68.9701C151.029 68.9701 150.287 69.4824 150.155 69.5242C150.023 69.9948 149.457 71.6989 149.457 74.1279L154.207 73.8281C154.339 70.8032 153.683 68.9701 151.983 68.9701H151.987Z" fill="black"/>
<path d="M161.101 65.1904H163.699V63.0412C163.699 60.7659 165.08 59.8213 168.976 60.0775V65.1865H172.871V69.569H168.976V80.4333C168.976 81.852 169.543 82.3224 170.598 82.3224C171.408 82.3224 172.221 82.1082 172.546 81.9362L172.991 85.6723C172.221 86.1886 170.352 86.789 168.242 86.789C165.036 86.789 163.414 84.984 163.414 81.2899V69.5652H161.101V65.1827V65.1904Z" fill="black"/>
<path d="M175.963 58.3536C175.963 58.3536 177.442 57.8073 178.92 57.8073C181.41 57.8073 181.749 58.3948 181.749 60.9167L181.79 66.7163C182.93 65.5825 184.875 64.49 187.241 64.49C190.788 64.49 192.312 66.5891 192.312 70.2896V86.0458H186.568V71.5505C186.568 70.1624 186.019 69.4065 184.751 69.4065C183.483 69.4065 182.343 69.994 181.753 70.6226V86.0458H175.967V58.3536H175.963Z" fill="black"/>
<path d="M199.548 57.0679C201.269 57.0679 201.972 57.9903 201.972 59.8761C201.972 61.5528 200.994 62.6432 198.451 62.6432C196.613 62.6432 196.027 61.4258 196.027 59.7902C196.027 58.1546 196.926 57.0642 199.548 57.0642V57.0679ZM196.264 86.0459V65.4551C196.968 65.119 198.103 64.9099 199.12 64.9099C201.192 64.9099 201.624 65.5373 201.624 67.7591V86.0421H196.264V86.0459Z" fill="black"/>
<path d="M222.037 75.7504C222.037 82.4844 219.377 86.789 212.753 86.789C207.692 86.789 204.945 82.1845 204.945 75.4505C204.945 70.8878 206.042 64.4954 214.143 64.4954C219.797 64.4954 222.033 68.7165 222.033 75.7504H222.037ZM213.515 82.3136C214.233 82.3136 214.864 82.1428 215.413 81.7594C215.499 81.4595 216.299 79.2427 216.299 75.6213C216.299 70.8043 215.541 69.0581 213.598 69.0581C212.88 69.0581 212.249 69.229 211.614 69.5288C211.321 70.2121 210.686 72.0873 210.686 75.6251C210.686 80.4839 211.656 82.3174 213.512 82.3174L213.515 82.3136Z" fill="black"/>
<path d="M228.725 65.1904H231.323V63.0412C231.323 60.7659 232.704 59.8213 236.599 60.0775V65.1865H240.495V69.569H236.599V80.4333C236.599 81.852 237.167 82.3224 238.222 82.3224C239.032 82.3224 239.845 82.1082 240.17 81.9362L240.615 85.6723C239.845 86.1886 237.976 86.789 235.866 86.789C232.66 86.789 231.038 84.984 231.038 81.2899V69.5652H228.725V65.1827V65.1904Z" fill="black"/>
<path d="M250.633 64.4954C255.75 64.4954 257.706 67.7746 257.706 74.3404C257.706 75.3196 257.706 76.4278 257.58 77.6234H248.055C248.181 80.523 249.262 82.1853 251.548 82.1853C253.834 82.1853 255.002 81.4604 255.794 81.4604C256.791 81.4604 257.21 82.3978 257.165 85.2974C255.794 86.1058 253.586 86.789 250.381 86.789C244.264 86.789 242.101 81.9728 242.101 75.5815C242.101 69.1902 244.765 64.4992 250.63 64.4992L250.633 64.4954ZM250.426 68.9701C249.511 68.9701 248.803 69.4824 248.677 69.5242C248.551 69.9948 248.01 71.6989 248.01 74.1279L252.545 73.8281C252.671 70.8032 252.045 68.9701 250.422 68.9701H250.426Z" fill="black"/>
<path d="M261.422 58.4024C262.157 58.103 263.384 57.8073 264.368 57.8073C266.574 57.8073 267.026 58.4441 267.026 60.9572V80.5802C267.026 81.7704 267.597 82.3238 268.497 82.3238C269.109 82.3238 269.764 82.1533 270.052 82.0244L270.339 85.7693C269.276 86.3644 267.805 86.789 266.17 86.789C263.268 86.789 261.425 85.1742 261.425 81.4255V58.3986L261.422 58.4024Z" fill="black"/>
<path d="M280.021 64.4954C285.385 64.4954 287.431 67.7746 287.431 74.3404C287.431 75.3196 287.431 76.4278 287.299 77.6234H277.316C277.448 80.523 278.581 82.1853 280.976 82.1853C283.371 82.1853 284.594 81.4604 285.42 81.4604C286.468 81.4604 286.903 82.3978 286.86 85.2974C285.42 86.1058 283.111 86.789 279.757 86.789C273.349 86.789 271.082 81.9728 271.082 75.5815C271.082 69.1902 273.873 64.4992 280.017 64.4992L280.021 64.4954ZM279.804 68.9701C278.845 68.9701 278.104 69.4824 277.972 69.5242C277.84 69.9948 277.273 71.6989 277.273 74.1279L282.024 73.8281C282.156 70.8032 281.5 68.9701 279.8 68.9701H279.804Z" fill="black"/>
<path d="M298.108 64.4954C300.952 64.4954 302.664 65.5165 302.999 65.7747C302.999 68.5875 302.374 70.0793 301.283 70.0793C300.572 70.0793 299.612 69.3542 298.19 69.3542C297.646 69.3542 297.143 69.4833 296.645 69.6959C296.436 70.0793 295.598 72.2961 295.598 75.7048C295.598 80.0967 297.021 82.0555 299.236 82.0555C300.449 82.0555 301.618 81.6721 302.411 81.2469L303.037 85.0846C301.991 85.8514 300.36 86.789 297.687 86.789C292.587 86.789 289.661 82.9095 289.661 75.7922C289.661 68.6748 292.546 64.4954 298.108 64.4954Z" fill="black"/>
<path d="M321.615 75.7504C321.615 82.4844 318.958 86.789 312.329 86.789C307.267 86.789 304.523 82.1845 304.523 75.4505C304.523 70.8878 305.621 64.4954 313.723 64.4954C319.379 64.4954 321.615 68.7165 321.615 75.7504ZM313.088 82.3136C313.806 82.3136 314.437 82.1428 314.986 81.7594C315.072 81.4595 315.873 79.2427 315.873 75.6213C315.873 70.8043 315.113 69.0581 313.171 69.0581C312.453 69.0581 311.821 69.229 311.186 69.5288C310.893 70.2121 310.258 72.0873 310.258 75.6251C310.258 80.4839 311.228 82.3174 313.084 82.3174L313.088 82.3136Z" fill="black"/>
<path d="M324.587 65.0416C325.258 64.7461 326.512 64.4954 327.387 64.4954C328.851 64.4954 329.521 64.7909 330.147 66.8895C330.731 66.3022 333.114 64.4954 336 64.4954C338.886 64.4954 339.679 66.2162 339.973 66.9718C340.643 66.2573 343.362 64.4954 346.08 64.4954C350.053 64.4954 350.596 67.0167 350.596 71.3859V86.0459H344.951V72.0143C344.951 70.2075 344.866 69.4108 343.321 69.4108C342.36 69.4108 340.77 70.2487 340.394 70.5442V86.0459H334.79V72.0143C334.79 70.2075 334.704 69.4108 333.2 69.4108C332.031 69.4108 330.355 70.4619 330.273 70.5442V86.0459H324.587V65.0416Z" fill="black"/>
<path d="M354.699 65.0482H353.569V64.4954H356.541V65.0482H355.411V68.9541H354.696V65.0482H354.699Z" fill="black"/>
<path d="M357.687 64.4954H358.593L359.232 67.1175C359.452 68.0026 359.505 68.5817 359.505 68.5817H359.535C359.535 68.5817 359.602 68.0026 359.815 67.1175L360.441 64.4954H361.34L361.743 68.9541H361.127L360.931 66.3578C360.867 65.5317 360.854 64.9675 360.854 64.9675H360.831C360.831 64.9675 360.737 65.576 360.541 66.3578L359.902 68.9541H359.133L358.493 66.3578C358.297 65.5649 358.203 64.9675 358.203 64.9675H358.167C358.167 64.9675 358.16 65.5317 358.104 66.3578L357.907 68.9541H357.284L357.687 64.4954Z" fill="black"/>
<path d="M91.2507 86.2413C94.3053 87.262 96.9673 87.7779 101.144 88.2266C114.405 89.6548 133.798 82.8689 134.61 65.2405C132.366 76.584 118.013 91.9093 91.2507 86.2413Z" fill="#00A54F"/>
<path d="M57.7514 111.927C72.0075 119.266 98.6426 121.98 116.828 108.304C118.395 107.1 118.858 105.343 118.301 104.03C118.174 103.701 117.931 103.324 117.58 103.036C116.649 102.225 115.045 101.911 112.813 102.647C92.6045 109.325 69.4352 101.914 72.6692 86.3572C72.9795 85.0075 73.4992 83.4633 74.0339 82.3081C71.7196 82.252 69.2557 82.4539 66.5675 83.0409C63.8569 83.6316 61.6099 84.4915 59.7405 85.5346C57.2018 86.9516 55.2689 88.6154 53.8481 90.41C53.321 91.0755 52.8648 91.7597 52.4723 92.4589C52.4723 92.4626 52.4685 92.4664 52.4648 92.4701C52.4573 92.4851 52.4498 92.5 52.4423 92.515C50.8234 95.4424 50.3486 98.5793 50.6627 101.492C50.6627 101.503 50.6627 101.518 50.6664 101.529C50.6664 101.533 50.6664 101.54 50.6664 101.544C51.0104 104.61 52.2292 107.422 53.8967 109.47C53.9977 109.59 54.0986 109.713 54.2033 109.833C55.2726 110.562 56.4578 111.261 57.7477 111.927" fill="#068BCC"/>
<path d="M126.687 47.2531C126.635 47.2083 126.582 47.1671 126.53 47.1223C124.01 46.0642 121.337 45.1445 118.525 44.3743C83.6872 40.0223 57.6689 51.048 45.8318 65.7452C45.3234 66.4967 44.8523 67.2669 44.4036 68.0483C43.9924 68.7624 43.5998 69.484 43.2446 70.2168C43.2296 70.2467 43.211 70.2766 43.196 70.3066C42.9418 70.83 42.7025 71.3609 42.4781 71.8955C42.1678 72.6283 41.8986 73.3574 41.6481 74.0902C41.5098 74.4977 41.3789 74.9015 41.2593 75.3091C40.8331 76.7485 40.5115 78.1879 40.3059 79.6199C40.2984 79.676 40.2947 79.7321 40.2872 79.7881C40.2349 80.1583 40.19 80.5284 40.1526 80.8986C40.1451 80.992 40.1377 81.0855 40.1302 81.1827C40.0629 81.938 40.0218 82.6932 40.0143 83.4447C40.0143 83.512 40.0143 83.5793 40.0143 83.6466C40.0143 84.4243 40.0405 85.1982 40.1003 85.9646C40.119 86.2114 40.1489 86.4544 40.1751 86.7012C40.1937 86.8732 40.205 87.0414 40.2274 87.2134C40.2536 87.4153 40.2872 87.6209 40.3171 87.8228C40.347 88.0322 40.3732 88.2453 40.4106 88.4547C40.448 88.6827 40.4966 88.9108 40.5415 89.1389C40.5751 89.3221 40.6088 89.5053 40.6461 89.6847C40.7022 89.9539 40.7695 90.2194 40.8368 90.4886C40.8705 90.6269 40.9004 90.7652 40.934 90.9036C41.0312 91.2737 41.1359 91.6401 41.2443 92.0065C41.2556 92.0402 41.263 92.0776 41.2743 92.1112C41.3416 92.3281 41.4163 92.5449 41.4874 92.7618C41.5472 92.945 41.6033 93.1282 41.6668 93.3076C41.9099 93.9993 42.1865 94.6835 42.4819 95.3602C42.5268 95.4612 42.5641 95.5621 42.609 95.6631C42.68 95.8201 42.7586 95.9734 42.8296 96.1304C42.938 96.3622 43.0427 96.594 43.1549 96.8221C43.4839 97.4876 43.8428 98.1419 44.2242 98.7887C44.284 98.8896 44.3363 98.9906 44.3962 99.0878C44.5382 99.3233 44.6878 99.5589 44.8373 99.7944C44.9233 99.929 45.0018 100.064 45.0916 100.198C45.4954 100.819 45.9253 101.428 46.374 102.03C46.4562 102.142 46.5347 102.255 46.6207 102.367C46.7366 102.52 46.86 102.67 46.9834 102.823C47.1404 103.025 47.2937 103.223 47.4582 103.421C47.5891 103.582 47.7312 103.739 47.8658 103.9C48.0228 104.087 48.1761 104.274 48.3406 104.457C48.8752 105.062 49.436 105.653 50.0156 106.236C50.0903 106.311 50.1614 106.39 50.2399 106.464C50.3969 106.618 50.5577 106.771 50.7185 106.921C50.8979 107.093 51.0736 107.265 51.2568 107.437C51.4999 107.665 51.7541 107.885 52.0046 108.106C52.1093 108.196 52.2065 108.293 52.3149 108.382C52.5729 108.607 52.8384 108.827 53.1038 109.044C53.2085 109.13 53.3094 109.22 53.4179 109.306C53.6871 109.497 53.9563 109.661 54.2068 109.826C54.1021 109.706 54.0011 109.586 53.9002 109.463C52.2327 107.414 51.0138 104.603 50.6699 101.537C50.6699 101.533 50.6699 101.526 50.6699 101.522C50.6699 101.511 50.6699 101.496 50.6661 101.484C50.3521 98.5719 50.8269 95.435 52.4458 92.5075C52.4533 92.4926 52.4607 92.4776 52.4682 92.4627C52.4682 92.4589 52.472 92.4552 52.4757 92.4514C52.8683 91.756 53.3244 91.0681 53.8516 90.4026C55.2723 88.608 57.2053 86.9442 59.7439 85.5272C61.6133 84.4841 63.8603 83.6241 66.571 83.0334C69.2591 82.4464 71.723 82.2408 74.0373 82.3006C80.3634 82.4576 85.579 84.5775 91.247 86.2301C91.247 86.2301 91.247 86.2301 91.2507 86.2301C118.013 91.8981 132.366 76.5765 134.61 65.2293C135.028 58.7387 132.512 52.0687 126.687 47.2419V47.2531Z" fill="#8FC441"/>
<path d="M52.0086 108.113C51.7581 107.893 51.5039 107.668 51.2608 107.444C51.0776 107.276 50.9019 107.1 50.7225 106.928C50.5617 106.775 50.4009 106.625 50.2439 106.472C50.1691 106.397 50.0943 106.319 50.0196 106.244C49.44 105.661 48.8792 105.07 48.3446 104.464C48.1838 104.281 48.0268 104.094 47.8698 103.907C47.7352 103.746 47.5968 103.589 47.4622 103.429C47.3015 103.23 47.1444 103.028 46.9874 102.83C46.8678 102.677 46.7444 102.527 46.6247 102.374C46.5387 102.262 46.4602 102.15 46.378 102.038C45.9293 101.436 45.4994 100.826 45.0956 100.206C45.0096 100.071 44.9273 99.9365 44.8413 99.8019C44.6918 99.5663 44.5422 99.3345 44.4002 99.0953C44.3403 98.9943 44.288 98.8934 44.2282 98.7962C43.8505 98.1493 43.4879 97.4913 43.1589 96.8296C43.0467 96.6015 42.942 96.3697 42.8336 96.1379C42.7588 95.9808 42.684 95.8276 42.613 95.6705C42.5681 95.5696 42.527 95.4686 42.4859 95.3677C42.1905 94.691 41.9176 94.0068 41.6708 93.3151C41.6073 93.1356 41.5512 92.9524 41.4914 92.7692C41.4203 92.5524 41.3418 92.3355 41.2783 92.1187C41.267 92.085 41.2596 92.0476 41.2483 92.014C41.1362 91.6476 41.0315 91.2812 40.938 90.911C40.9006 90.7727 40.8745 90.6344 40.8408 90.496C40.7773 90.2268 40.7062 89.9614 40.6501 89.6922C40.6127 89.5127 40.5791 89.3295 40.5455 89.1463C40.5006 88.9183 40.452 88.6902 40.4146 88.4621C40.3809 88.2528 40.351 88.0396 40.3211 87.8303C40.2912 87.6284 40.2576 87.4265 40.2314 87.2208C40.209 87.0526 40.1977 86.8806 40.179 86.7086C40.1529 86.4619 40.123 86.2188 40.1043 85.9721C40.0445 85.2019 40.0183 84.4317 40.0183 83.654C40.0183 83.5867 40.0183 83.5194 40.0183 83.4521C40.0258 82.7006 40.0669 81.9454 40.1342 81.1902C40.1417 81.0967 40.1454 81.0032 40.1566 80.906C40.194 80.5359 40.2389 80.1657 40.2912 79.7956C40.2987 79.7395 40.3024 79.6834 40.3099 79.6273C40.5155 78.1954 40.8371 76.756 41.2633 75.3165C41.3829 74.909 41.5138 74.5052 41.6521 74.0977C41.9026 73.3649 42.1756 72.6358 42.4821 71.903C42.7065 71.3683 42.9495 70.8374 43.2 70.314C43.215 70.2841 43.2336 70.2542 43.2486 70.2243C43.6075 69.4877 44.0001 68.7661 44.4076 68.0558C44.8563 67.2744 45.3274 66.5042 45.8358 65.7527C46.1499 65.2554 46.4752 64.7619 46.8079 64.2796C60.4994 44.3593 89.5499 36.6013 117.568 44.1125C117.89 44.1985 118.211 44.2883 118.529 44.378C121.341 45.1444 124.014 46.0679 126.534 47.126C116.937 39.0689 103.013 35.9694 86.6224 37.2967C56.0951 39.768 34.0287 60.6268 37.3263 83.8896C38.018 88.765 39.7827 93.3599 42.3999 97.5511C44.6993 101.234 47.6791 104.662 51.1674 107.59C51.8777 108.162 52.6666 108.782 53.4181 109.317C53.3134 109.231 53.2125 109.141 53.1078 109.055C52.8424 108.835 52.5769 108.618 52.3189 108.394C52.2142 108.304 52.1133 108.21 52.0086 108.117V108.113Z" fill="#00A54F"/>
<circle cx="45.8322" cy="65.7452" r="0.18694" fill="white"/>
<path d="M46.8044 64.2721C46.4716 64.7544 46.1463 65.2479 45.8323 65.7452C57.6693 51.048 83.6876 40.0223 118.529 44.378C118.208 44.2882 117.886 44.1985 117.569 44.1125C89.55 36.6013 60.4996 44.3593 46.8044 64.2721Z" fill="white"/>
</svg>
